<svg viewBox="0 0 511.4 511.4" width="512" xmlns="http://www.w3.org/2000/svg">
            <path d="M102.8 145c-47.5 0-86 38.6-86 86v29.3h168.6V145z" fill="#0dca71"></path>
            <path d="M432.9 377.8l-43-70.8-95.1 60.2 84 144.2 25.2-15.3a86.2 86.2 0 0028.9-118.3z" fill="#0cba68"></path>
            <path d="M121.6 307l-43 70.8a86.2 86.2 0 0028.8 118.3l25.3 15.3 84-144.2z" fill="#0dca71"></path>
            <path d="M408.6 145H326v115.3h168.7v-29.2c0-47.5-38.6-86.1-86-86.1z" fill="#0cba68"></path>
            <path d="M345.9 90.2A90.3 90.3 0 00255.7 0L245 85.3l10.7 82.1H346V90.2z" fill="#0cba68"></path>
            <path d="M255.7 0a90.3 90.3 0 00-90.2 90.2v77.2h90.2z" fill="#0dca71"></path>
            <g>
              <path d="M420 269.3c0-62.4-31.7-117.1-79.2-147.4l-85 147.4z" fill="#ebb65b"></path>
              <path d="M255.7 269.3L340.8 122c-24.8-15.8-54-25-85-25L245 160z" fill="#fdd278"></path>
              <path d="M91.4 269.3h164.3l-85-147.4a174.3 174.3 0 00-79.3 147.4z" fill="#ffc663"></path>
              <path d="M255.7 97c-31.1 0-60.2 9.1-85 25l85 147.3z" fill="#ffe7ab"></path>
              <path d="M255.7 269.3L245 384l10.7 57.7c31.1 0 60.3-9.2 85.1-25z" fill="#ebb65b"></path>
              <path d="M255.7 269.3l85.1 147.4c47.5-30.2 79.2-85 79.2-147.4z" fill="#fdd278"></path>
              <path d="M170.6 416.7c24.9 15.8 54 25 85.1 25V269.3z" fill="#ffc663"></path>
              <path d="M255.7 269.3H91.4c0 62.4 31.8 117.2 79.2 147.4z" fill="#ffe7ab"></path>
              <path d="M337 269.3L296.4 199h-40.7L245 266.7l10.7 73h40.7z" fill="#ffe5a5"></path>
              <path d="M215 198.9l-40.6 70.4 40.7 70.5h40.6V198.9z" fill="#fffaed"></path>
            </g>
          </svg>