<svg viewBox="0 0 56 58" width="512" xmlns="http://www.w3.org/2000/svg">
            <g fill="none" transform="translate(0 -1)">
              <path d="M46.8 48.4a30.5 30.5 0 01-8.8-24l6.9-12C44.4 9.6 41.6 1 28 1A32 32 0 003.4 13.5a.2.2 0 00.2.4l2.5-.5a.5.5 0 01.4.8 14.2 14.2 0 00-3.3 4.3.2.2 0 00.3.4l2.5-.6a.5.5 0 01.6.6C5 22.5-.4 37.1.9 56.8a.5.5 0 00.9.2c2.2-3.3 5-6.2 8.4-8.3a.5.5 0 01.7.4c0 2.4.8 4.7 2.4 6.4a.5.5 0 001-.1 14 14 0 015.4-8h.5c1.7 1.2 3 3.8 3.6 5.8.5 1.8 1 3.6 1.1 5.4a.5.5 0 00.8.4c7-4 7.1-8.5 7.2-8.6a.5.5 0 01.9-.2c1.4 1.6 2.7 3.4 3.7 5.2a.5.5 0 001 0c.8-2 1.3-4.3 1.5-6.6l6.4.5a.5.5 0 00.4-1z" fill="#f9eab0"></path>
              <path d="M44.5 49c-4.8-.4-4.3-.3-5.6-.6a.5.5 0 00-.5.5c-.2 2-.6 4-1.2 5.9-1-1.7-2.2-3.2-3.4-4.7a.5.5 0 00-.9.2v.1c-.7 4.4-5.4 7.5-7.2 8.5a.5.5 0 01-.8-.4c-.4-3.6-1.6-8.8-4.6-11a.5.5 0 00-.6 0 14 14 0 00-5.5 7.9c-1.3-1.8-2-4-2-6.2a.5.5 0 00-.6-.4l-.7.4a.5.5 0 00-.7-.4c-2.7 1.7-5 3.9-7 6.4a91.2 91.2 0 015-36.8.5.5 0 00-.4-.1l-1.2.3c-.1-.2-.4-.4-.6-.3l-.7.1c.8-1.5 1.8-3 3-4.2.4-.3 0-1-.4-.8l-1.2.2c0-.2-.3-.3-.5-.2l-.7.1c.4-.4 6.8-10.3 18.4-12.2a27 27 0 013.9-.3c12 0 14.5 8.7 15 11.3l-6.2 12a32.6 32.6 0 007.9 24c.2.3.2.6 0 .8z" fill="#f5efca"></path>
              <path d="M27.8 1z" fill="#ecf0f1"></path>
              <path d="M53 29c.1-1.8-.5-3.6-1.8-5-1.5-1.6-4.2-3-9.2-3-12 0-13 2-13 2s0-3.8 10-6.7c.5-.2.8-.6.8-1.1-.1-1 .2-2.1.9-2.9.2-.2.5-.3.8-.3 1.7 0 8 .4 10.5 3 3 3 5 7 1 14z" fill="#f0c419"></path>
              <path d="M51.2 24c-4.5 5.2-3.8-1.8-19.2 1 0 0-3 0-3-2 0 0 1-2 13-2 5 0 7.7 1.4 9.2 3z" fill="#f29c1f"></path>
              <path d="M32 12.3a3 3 0 11-3.5-2.3z" fill="#f0c419"></path>
              <path d="M44 18a1 1 0 010-2c.5-.1 1-.3 1.3-.7a1 1 0 011.4 1.4C46 17.4 45 18 44 18z" fill="#e57e25"></path>
              <circle cx="29" cy="13" fill="#393f4a" r="2"></circle>
              <path d="M34.6 14c-2 0-3.8-.9-5.2-2.2a4 4 0 00-3.4-1.1c-2 .4-3.1 2.7-3.1 2.8a1 1 0 01-1.8-1s1.6-3.1 4.5-3.8c1.8-.3 3.6.3 5 1.5 2.1 1.8 3.6 2 4.4 1.9.4-.1.8-.3 1.1-.6a1 1 0 011.7 1c-.8 1-2 1.6-3.2 1.6z" fill="#7f6e5d"></path>
            </g>
          </svg>