<svg viewBox="0 0 512 512" xmlns="http://www.w3.org/2000/svg">
            <path d="M424 101l-8 25v6l16 21c3 4 0 9-4 9h-27l-5 2-15 22c-3 4-9 3-10-2l-8-25-4-4-25-8c-5-1-6-7-2-10l22-15 2-5V90c0-4 5-7 9-4l21 16h6l25-8c4-2 9 3 7 7z" fill="#fe9901"></path>
            <path d="M428 162h-27l-5 2-15 22c-3 4-9 3-10-2l-5-15 2-2 16-23 5-2h28c2 0 4-1 5-3l10 14c3 4 0 9-4 9z" fill="#fb8801"></path>
            <circle cx="438.8" cy="403.5" fill="#60b7ff" r="23.4"></circle>
            <path d="M462 403a23 23 0 11-46-2c4 4 9 7 16 7 12 0 22-10 23-21 4 4 7 10 7 16z" fill="#26a6fe"></path>
            <path d="M24 511l321-137-101-100-100-101L7 494c-4 11 6 21 17 17z" fill="#fe7d43"></path>
            <path d="M345 374L24 511c-11 4-21-6-17-17 3 1 5 0 8-1l315-134z" fill="#fd6930"></path>
            <g fill="#7acaa6">
              <path d="M47 401l95 60-54 22-60-37zM84 315l162 101-54 23-128-80zM120 229l210 131 15 14-49 21-195-122z"></path>
            </g>
            <g fill="#57be92">
              <path d="M142 461l-54 22-20-12 54-23zM246 416l-54 23-20-13 54-23zM345 374l-49 21-20-13 53-23 1 1z"></path>
            </g>
            <path d="M136 4c-6 11-18 33-38 41-3 1-3 5 0 7 20 8 32 29 38 41 1 2 4 2 6 0 5-12 18-33 37-41 3-2 3-6 0-7-19-8-32-30-37-41-2-2-5-2-6 0z" fill="#fe9901"></path>
            <path d="M179 52c-19 8-32 29-37 41-2 2-5 2-6 0l-9-15a87 87 0 0139-41l13 8c3 1 3 5 0 7z" fill="#fb8801"></path>
            <path d="M345 426c-4 9-14 26-30 33-2 1-2 4 0 5 16 7 26 24 30 33 1 2 4 2 5 0 5-9 15-26 31-33 2-1 2-4 0-5-16-7-26-24-31-33-1-2-4-2-5 0z" fill="#fe9901"></path>
            <path d="M381 464c-16 7-26 24-31 33-1 2-4 2-5 0l-7-12a70 70 0 0132-33l11 7c2 1 2 4 0 5z" fill="#fb8801"></path>
            <g fill="#acacac">
              <path d="M504 288a52 52 0 00-37-19c-7 0-13 1-20 3-13-8-30-8-50-1a8 8 0 106 14c7-2 17-5 28-3l-3 3c-10 10-13 27-5 38a26 26 0 0021 11c7 0 14-4 18-9l5-12c2-10-1-20-6-28h5c10 0 19 5 26 13a8 8 0 1012-10zm-52 23c-1 4-4 7-8 7s-7-2-8-4c-4-5-2-13 3-18l7-6c5 6 7 13 6 21zM443 80c11 9 28 8 39-2l2-2c2 10-2 21-5 28a8 8 0 1014 6c8-18 9-36 3-50 3-6 4-12 5-19 1-14-5-28-15-39a8 8 0 10-11 11 37 37 0 0110 33c-8-7-18-10-28-9-5 0-9 2-12 4-6 3-10 10-10 18-1 8 2 16 8 21zm7-20c0-2 0-5 3-6 4-3 9-2 13-1 1 0 13 6 12 7l-6 7c-6 4-14 5-19 1-2-2-3-5-3-8zM289 43c-4 1-6 6-5 10 11 30 2 84-18 109a8 8 0 1012 10c11-14 20-36 24-60s3-48-3-65c-2-4-6-6-10-4zM460 231a8 8 0 105-15c-17-6-41-7-65-3s-46 13-60 25a8 8 0 1010 11c25-20 79-29 110-18z"></path>
            </g>
            <circle cx="345.3" cy="31.1" fill="#60b7ff" r="23.4"></circle>
            <path d="M369 31a23 23 0 11-47 0v-1c4 3 8 5 13 5 13 0 23-10 24-23 6 4 10 11 10 19z" fill="#26a6fe"></path>
            <circle cx="227.5" cy="94.5" fill="#60b7ff" r="23.4"></circle>
            <path d="M251 94a23 23 0 11-47 0c4 2 8 4 13 4 13 0 23-10 23-23 7 4 11 11 11 19z" fill="#26a6fe"></path>
            <path d="M164 136l217 217c3 3 3 8 0 11l-21 21c-3 3-8 3-11 0L132 168c-3-3-3-8 0-11l21-21c3-3 8-3 11 0z" fill="#f3eae6"></path>
            <path d="M381 364l-21 20c-3 4-8 4-11 0l-15-14c4 3 9 3 12 0l20-20c3-4 3-9 0-12l15 15c3 3 3 8 0 11z" fill="#e1d3ce"></path>
          </svg>