<svg xmlns="http://www.w3.org/2000/svg" viewBox="0 0 472.11 472.11">
            <path d="M260.07 216.11a63.94 63.94 0 00-28.26-53.1 55.95 55.95 0 00-43.74-90.9c-.8 0-1.6.1-2.4.12a56 56 0 10-107.2 0c-.8 0-1.6-.12-2.4-.12a55.95 55.95 0 00-43.75 90.9 64 64 0 000 106.2 55.95 55.95 0 0043.75 90.9h112a55.95 55.95 0 0043.74-90.9 63.94 63.94 0 0028.26-53.1z" fill="#6a9923"></path>
            <path d="M193.8 178.51a8 8 0 00-11.32-.16l-42.41 41.03V104.1a8 8 0 00-16 0v56.7l-36.35-36.35a8 8 0 00-11.31 11.3l47.66 47.67V292.8l-34.35-34.34a8 8 0 00-11.31 11.3l45.66 45.67V464.1a8 8 0 0016 0V241.63l53.6-51.78a8 8 0 00.12-11.34z" fill="#618c20"></path>
            <path d="M468.07 216.11a63.94 63.94 0 00-28.26-53.1 55.95 55.95 0 00-43.74-90.9c-.8 0-1.6.1-2.4.12a56 56 0 10-107.2 0c-.8 0-1.6-.12-2.4-.12a55.95 55.95 0 00-43.75 90.9 64 64 0 000 106.2 55.95 55.95 0 0043.75 90.9h112a55.95 55.95 0 0043.74-90.9 63.94 63.94 0 0028.26-53.1z" fill="#6a9923"></path>
            <path d="M401.72 178.46a8 8 0 00-11.31 0l-42.34 42.34V104.11a8 8 0 00-16 0v56.7l-36.35-36.35a8 8 0 00-11.31 11.3l47.66 47.67V292.8l-34.35-34.34a8 8 0 00-11.31 11.3l45.66 45.67V464.1a8 8 0 0016 0V242.87c.6-.3 1.15-.66 1.65-1.1l52-52a8 8 0 000-11.31z" fill="#618c20"></path>
            <path d="M364.07 216.11a63.94 63.94 0 00-28.26-53.1 55.95 55.95 0 00-43.74-90.9c-.8 0-1.6.1-2.4.12a56 56 0 10-107.2 0c-.8 0-1.6-.12-2.4-.12a55.95 55.95 0 00-43.75 90.9 64 64 0 000 106.2 55.95 55.95 0 0043.75 90.9h112a55.95 55.95 0 0043.74-90.9 63.94 63.94 0 0028.26-53.1z" fill="#88b337"></path>
            <path d="M297.72 178.46a8 8 0 00-11.31 0l-42.34 42.34V104.11a8 8 0 00-16 0v56.7l-36.35-36.35a8 8 0 00-11.31 11.3l47.66 47.67V292.8l-34.35-34.34a8 8 0 00-11.31 11.3l45.66 45.67V464.1a8 8 0 0016 0V242.87c.6-.3 1.15-.66 1.65-1.1l52-52a8 8 0 000-11.31z" fill="#6a9923"></path>
            <path d="M372.07 472.11h-272a8 8 0 010-16h272a8 8 0 010 16z" fill="#595959"></path></svg>