<svg xmlns="http://www.w3.org/2000/svg" viewBox="0 0 512 512">
            <path d="M176.6 360l-51.1-24.2-26-12.3L155.1 187l35.5-8.8s-58 97.4-14 181.9z" fill="#f8b40e"></path>
            <path d="M488.8 330.5v-62.4c0-5-4-9-9-9h-25.7c-5 0-9 4-9 9v22.5" fill="#f2171c"></path>
            <path d="M464.7 330.5v-71.3H454c-5 0-9 4-9 8.9v22.5" fill="#d8131e"></path>
            <path d="M225.8 266.7a60.1 60.1 0 110 120.2l42 22.6 141.3-15 14.6-127.8-190.4-15" fill="#bf8104"></path>
            <path d="M130.2 107.4H175a39.8 39.8 0 110 79.7h-44.8a8.1 8.1 0 01-8.1-8.2v-63.4c0-4.5 3.6-8.1 8-8.1z" fill="#f8b40e"></path>
            <path d="M175 170.8h-53v8.1c0 4.5 3.7 8.1 8.2 8.1H175a40 40 0 0039-48 39.8 39.8 0 01-39 31.8z" fill="#dd9b0a"></path>
            <path fill="#f8b40e" d="M356.5 423H143.1v-36h183.8"></path>
            <circle cx="415.1" cy="423" r="78.2" fill="#2c4046"></circle>
            <path fill="#dd9b0a" d="M167.5 187l-64.9 173.8-3-37.3L155 187z"></path>
            <circle cx="415.1" cy="423" r="42.8" fill="#9aa7b8"></circle>
            <circle cx="99.5" cy="423" r="78.2" fill="#2c4046"></circle>
            <circle cx="99.5" cy="423" r="42.8" fill="#9aa7b8"></circle>
            <path d="M99.5 473.6C71.6 473.6 49 451 49 423h15.7a35 35 0 0069.8 0h15.7c0 28-22.7 50.6-50.6 50.6z" fill="#1d2c30"></path>
            <path d="M343.6 423A78.8 78.8 0 01381 274.7c42 0 125 22.2 131 135.1.4 7.2-5.3 13.2-12.4 13.2h-156z" fill="#f8b40e"></path>
            <path d="M327.6 365.6a78.9 78.9 0 0179-79c12.4 0 28.6 2 45.2 7.8a138.7 138.7 0 00-70.8-19.7A78.9 78.9 0 00343.6 423h8.8a78.7 78.7 0 01-24.8-57.4z" fill="#dd9b0a"></path>
            <path d="M199 423a99.5 99.5 0 00-199 0h199z" fill="#f8b40e"></path>
            <path d="M116 324.9A99.5 99.5 0 000 423h33a99.5 99.5 0 0183-98.1z" fill="#dd9b0a"></path>
            <path d="M415.1 473.6c-27.9 0-50.6-22.7-50.6-50.6h15.7a35 35 0 0069.8 0h15.8c0 28-22.8 50.6-50.7 50.6z" fill="#1d2c30"></path>
            <path d="M146.1 107.4h-16a8.1 8.1 0 00-8 8V179c0 4.5 3.6 8.1 8 8.1h16v-79.6z" fill="#a0d9f2"></path>
            <path d="M146.1 170.8h-24v8.1c0 4.5 3.6 8.1 8 8.1h16v-16.2z" fill="#84bed3"></path>
            <path d="M394.9 222.4l-153 10.8a33.6 33.6 0 00-31.2 33.5h213v-17.4a27 27 0 00-28.8-26.9z" fill="#444d56"></path>
            <path fill="#d3d3d3" d="M183.9 65.5h15.7v77.2h-15.7z"></path>
            <g fill="#dd9b0a">
              <path d="M452.2 337.4h-76.6a7.9 7.9 0 010-15.8h76.6a7.9 7.9 0 010 15.8zM432.2 362.7h-56.6a7.9 7.9 0 010-15.7h56.6a7.9 7.9 0 010 15.7zM412.1 387.8h-36.5a7.9 7.9 0 010-15.7H412a7.9 7.9 0 010 15.7z"></path>
            </g>
            <circle cx="191.8" cy="147.2" r="23.1" fill="#444d56"></circle>
            <path d="M191.8 84c-8 0-14.3-6.4-14.3-14.2V25a14.3 14.3 0 1128.6 0v44.6c0 8-6.5 14.3-14.3 14.3z" fill="#e6e6e6"></path>
          </svg>