<svg xmlns="http://www.w3.org/2000/svg" viewBox="0 0 512 512">
            <path d="M339.4 346.5a636.5 636.5 0 00-46.7-140.2 8.4 8.4 0 00-7.6-4.8h-21a8.4 8.4 0 00-8 11 662.9 662.9 0 0129 289.7 8.4 8.4 0 008.4 9.5h50.3c4.4 0 8.1-3.6 8.3-8 2.3-52.8-2-105.6-12.7-157.2z" fill="#ff9940"></path>
            <g fill="#f5760f">
              <path d="M300.7 508.8a8.4 8.4 0 01-2-6.6 662.7 662.7 0 00-29-289.7 8.4 8.4 0 018-11H264a8.4 8.4 0 00-8 11 662.9 662.9 0 0129 289.7 8.4 8.4 0 008.4 9.5H307c-2.4 0-4.7-1-6.3-2.9z"></path>
              <path d="M331.2 312.2l-48.8 9.1c.9 5.6 1.7 11.1 2.4 16.7l50.6-9.5c-1.3-5.5-2.7-10.9-4.2-16.3zM288 369.2l1.1 16.7h57.2a641 641 0 00-2.6-16.7H288z"></path>
            </g>
            <path d="M499.7 157.8A125.9 125.9 0 00276.9 212a8.4 8.4 0 0010.2 9.7L495 171a8.5 8.5 0 004.6-13.3z" fill="#a4d64d"></path>
            <path d="M351.1 2.9a8.4 8.4 0 00-7.5-2.8 125.9 125.9 0 00-93 185c7.4 13.4 17 25.2 28.6 35.1a8.4 8.4 0 0013.5-4l60.1-205.5c.8-2.7.2-5.6-1.7-7.8z" fill="#8ec42f"></path>
            <g fill="#a4d64d">
              <path d="M327 199.3c-15.3-.3-30.3 2.1-44.7 7.2a8.4 8.4 0 00-3.3 13.7l148 154.7a8.5 8.5 0 0013.8-2.6 125.9 125.9 0 00-113.7-173z"></path>
              <path d="M293.3 212.1a125.9 125.9 0 00-222.8-54.3A8.5 8.5 0 0075 171l208 50.7a8.4 8.4 0 0010.2-9.7z"></path>
            </g>
            <path d="M293.2 212.5c-.6-2.8-2.6-5-5.3-6a125.9 125.9 0 00-158.5 165.8c2.2 5.5 9.7 7 13.8 2.6l148-154.7c2-2 2.7-5 2-7.7z" fill="#8ec42f"></path>
            <path d="M491.7 496.5c-71.3-45-153.8-68.7-238.6-68.7S86 451.6 14.5 496.5A8.4 8.4 0 0019 512h468.3a8.4 8.4 0 004.4-15.5z" fill="#ffd042"></path>
            <path d="M35.5 506c-1-3.6.4-7.5 3.6-9.5A447 447 0 01265.4 428l-12.3-.2a447.2 447.2 0 00-238.6 68.7A8.4 8.4 0 0019 512h24.6c-3.8 0-7-2.5-8-6z" fill="#ffc412"></path>
            <circle cx="290.8" cy="218.3" r="29.3" fill="#a4a09a"></circle>
            <path d="M299.2 239.2a29.3 29.3 0 01-24.5-45.4 29.3 29.3 0 1040.7 40.6c-4.7 3-10.2 4.8-16.2 4.8z" fill="#928d86"></path>
            <circle cx="316" cy="256" r="29.3" fill="#a4a09a"></circle>
            <path d="M324.4 281.1a29.3 29.3 0 01-17.1-53.1 29.4 29.4 0 1025.8 51.8c-2.8.9-5.7 1.3-8.7 1.3z" fill="#928d86"></path>
            <circle cx="261.5" cy="256" r="29.3" fill="#a4a09a"></circle>
            <path d="M269.9 277a29.3 29.3 0 01-24.5-45.5A29.3 29.3 0 10286 272c-4.6 3-10.2 4.9-16.1 4.9z" fill="#928d86"></path>
            <g fill="#ffb266">
              <circle cx="274.1" cy="473.9" r="8.4"></circle>
              <circle cx="378.9" cy="482.3" r="8.4"></circle>
              <circle cx="328.6" cy="465.6" r="8.4"></circle>
              <circle cx="223.8" cy="457.2" r="8.4"></circle>
              <circle cx="202.8" cy="482.3" r="8.4"></circle>
              <circle cx="144.2" cy="482.3" r="8.4"></circle>
            </g>
          </svg>